<svg enable-background="new 0 0 194.8 194.8" viewBox="0 0 194.8 194.8" xmlns="http://www.w3.org/2000/svg" xmlns:xlink="http://www.w3.org/1999/xlink"><linearGradient id="a"><stop offset="0" stop-color="#006837"/><stop offset="1" stop-color="#009245"/></linearGradient><linearGradient id="b" gradientUnits="userSpaceOnUse" x1="43.6465" x2="150.5651" xlink:href="#a" y1="102.5165" y2="192.2319"/><linearGradient id="c" gradientUnits="userSpaceOnUse" x1="43.647" x2="150.5505" xlink:href="#a" y1="61.3615" y2="151.0642"/><linearGradient id="d" gradientUnits="userSpaceOnUse" x1="43.6464" x2="150.5499" xlink:href="#a" y1="20.2079" y2="109.9107"/><linearGradient id="e" gradientUnits="userSpaceOnUse" x1="50.231" x2="144.9281" xlink:href="#a" y1="-4.0042" y2="75.4561"/><path d="m177.3 33.1c0-17.7-36.5-32.6-79.7-32.6s-79.7 14.9-79.7 32.6v43.3 17.4 37 2.8 28.3c0 17.7 36.5 32.6 79.7 32.6s79.7-14.9 79.7-32.6v-28.2-2.8-23.3-31.2z" fill="#fff"/><path d="m172.4 131.3c-.4.4-.7.8-1.1 1.2-.6.6-1.2 1.1-1.9 1.7-.4.4-.8.7-1.2 1.1-.8.6-1.6 1.2-2.5 1.8-.4.3-.7.6-1.2.8-1.3.9-2.7 1.7-4.2 2.5-15.3 8.2-38.2 13-62.7 13s-47.4-4.7-62.7-13c-1.5-.8-2.9-1.6-4.2-2.5-.4-.3-.8-.6-1.2-.9-.8-.6-1.7-1.2-2.4-1.7-.5-.4-.8-.7-1.3-1.1-.6-.5-1.3-1.1-1.8-1.7-.4-.4-.7-.8-1.1-1.2-.5-.5-1-1.1-1.4-1.7-.1-.1-.2-.2-.2-.3v29.8c0 17 35 31.3 76.5 31.3s76.5-14.3 76.5-31.3v-29.8c-.1.1-.2.2-.3.3-.6.6-1.1 1.2-1.6 1.7z" fill="url(#b)"/><path d="m172.3 90.2c-.4.4-.7.8-1.1 1.2-.6.6-1.3 1.2-1.9 1.7-.4.3-.8.7-1.2 1-.8.6-1.7 1.2-2.5 1.8-.4.3-.7.5-1.1.8-1.3.9-2.7 1.7-4.2 2.5-15.3 8.2-38.2 13-62.7 13s-47.4-4.7-62.7-13c-1.5-.8-2.9-1.6-4.2-2.5-.4-.3-.8-.6-1.2-.9-.8-.6-1.7-1.2-2.4-1.7-.5-.4-.8-.7-1.3-1.1-.6-.5-1.3-1.1-1.8-1.7-.4-.4-.7-.8-1.1-1.2-.5-.5-1-1.1-1.4-1.7-.1-.1-.2-.2-.2-.3v29.9c0 6.6 5.6 13.3 15.7 18.8 14.7 7.9 36.9 12.5 60.8 12.5s46-4.6 60.8-12.5c10.1-5.5 15.7-12.1 15.7-18.8v-29.8c-.1.1-.2.2-.2.3-.7.6-1.2 1.1-1.8 1.7z" fill="url(#c)"/><path d="m172.4 49c-.4.4-.7.8-1.1 1.2-.6.6-1.2 1.1-1.9 1.7-.4.4-.8.7-1.2 1.1-.8.6-1.6 1.2-2.5 1.8-.4.3-.7.6-1.2.8-1.3.9-2.7 1.7-4.2 2.5-15.3 8.2-38.2 13-62.7 13s-47.4-4.7-62.7-13c-1.5-.8-2.9-1.6-4.2-2.5-.4-.3-.8-.6-1.2-.9-.8-.6-1.7-1.2-2.4-1.7-.5-.4-.8-.7-1.3-1.1-.6-.5-1.3-1.1-1.8-1.7-.4-.4-.7-.8-1.1-1.2-.5-.5-1-1.1-1.4-1.7-.1-.1-.2-.2-.2-.3v29.8c0 6.6 5.6 13.3 15.7 18.8 14.7 7.9 36.9 12.5 60.8 12.5s46-4.6 60.8-12.5c10.1-5.5 15.7-12.1 15.7-18.8v-29.7c-.1.1-.2.2-.3.3-.6.5-1.1 1.1-1.6 1.6z" fill="url(#d)"/><path d="m97.6 4.5c-41.5 0-76.5 14.3-76.5 31.3 0 6.6 5.6 13.3 15.7 18.8 14.8 7.9 36.9 12.4 60.8 12.4s46-4.6 60.8-12.5c10.1-5.5 15.7-12.1 15.7-18.8 0-16.9-35.1-31.2-76.5-31.2z" fill="url(#e)"/><path d="m97.5 182.3c45.7-15.6 54.7-44 57.3-56 3.8-17.5 10.5-75.9 10.5-75.9-47.1-.8-67.8-21.8-67.8-21.8s-20.7 21-67.8 21.8c0 0 6.7 58.4 10.5 75.9 2.6 12 11.6 40.4 57.3 56z" fill="#4c9d6f" stroke="#fff" stroke-miterlimit="10" stroke-width="4"/><path d="m97.5 182.3c45.7-15.6 54.7-44 57.3-56 3.8-17.5 10.5-75.9 10.5-75.9-47.1-.8-67.8-21.8-67.8-21.8" fill="#3a895a" stroke="#fff" stroke-miterlimit="10" stroke-width="4"/><path d="m97.5 56.7h28.8v50.1c0 10.5-.9 18.5-2.8 24s-5.7 10.1-11.3 14c-5.7 3.8-13 5.7-21.8 5.7-9.4 0-16.6-1.3-21.8-3.8s-9.1-6.2-11.9-11-4.5-10.8-5-18l27.4-3.7c0 4.1.4 7.1 1.1 9.1s1.8 3.6 3.4 4.8c1.1.8 2.7 1.2 4.7 1.2 3.2 0 5.6-1.2 7.1-3.6s2.2-6.4 2.2-12v-56.8z" fill="#fff"/></svg>